<svg xmlns="http://www.w3.org/2000/svg" width="24.645" height="24.645" viewBox="0 0 24.645 24.645">
  <path id="call_24dp_5F6368_FILL0_wght400_GRAD0_opsz24" d="M143.207-815.356a20.551,20.551,0,0,1-8.454-1.865,25.292,25.292,0,0,1-7.6-5.288,25.291,25.291,0,0,1-5.288-7.6A20.552,20.552,0,0,1,120-838.562a1.393,1.393,0,0,1,.411-1.027,1.393,1.393,0,0,1,1.027-.411h5.545a1.273,1.273,0,0,1,.856.325,1.251,1.251,0,0,1,.445.77l.89,4.792a2.415,2.415,0,0,1-.034.924,1.44,1.44,0,0,1-.377.65l-3.32,3.354a16.556,16.556,0,0,0,1.626,2.447,24.08,24.08,0,0,0,2.071,2.276,24.074,24.074,0,0,0,2.225,1.968,21.619,21.619,0,0,0,2.464,1.66l3.217-3.217a1.916,1.916,0,0,1,.8-.462,2.2,2.2,0,0,1,.975-.086l4.724.958a1.584,1.584,0,0,1,.787.5,1.205,1.205,0,0,1,.308.8v5.545a1.393,1.393,0,0,1-.411,1.027A1.393,1.393,0,0,1,143.207-815.356Zm-19.065-16.43,2.259-2.259-.582-3.217h-3.046q.171,1.4.479,2.773A15,15,0,0,0,124.142-831.785ZM136.4-819.531a17,17,0,0,0,2.721.924,16.7,16.7,0,0,0,2.79.445v-3.012l-3.217-.65ZM124.142-831.785ZM136.4-819.531Z" transform="translate(-120 840)" fill="#1f3b26"/>
</svg>
