<svg id="Layer_1" data-name="Layer 1" xmlns="http://www.w3.org/2000/svg" width="142.562" height="23.929" viewBox="0 0 142.562 23.929">
  <g id="Group_4770" data-name="Group 4770">
    <path id="Path_21797" data-name="Path 21797" d="M15.1,76.99V91L3.224,76.99H0v21.7H4.341V85.066L16.086,98.694h3.351V76.99Z" transform="translate(0 -75.148)" fill="#1f3b26"/>
    <path id="Path_21798" data-name="Path 21798" d="M1416.426,64.714c2.745,0,4.022,1.245,4.309,3.256h4.309c-.51-5.553-5.267-6.99-8.937-6.99-4.947,0-8.234,2.681-8.234,6.831,0,3.351,1.883,5.522,6.192,6.352l3.511.67c2.33.415,2.873,1.4,2.873,2.362,0,1.532-1.373,2.394-3.766,2.394-3,0-5.011-1.4-5.362-3.67h-4.309c.319,4.66,4.053,7.532,9.415,7.532s8.49-2.681,8.49-6.8c0-3.575-2.426-5.2-6.671-6.064l-2.554-.511c-2.074-.415-3.223-1.086-3.223-2.649,0-1.788,1.564-2.713,3.958-2.713" transform="translate(-1373.342 -59.521)" fill="#1f3b26"/>
    <path id="Path_21799" data-name="Path 21799" d="M1037.88,789.111a2.638,2.638,0,0,0,5.272,0,2.637,2.637,0,0,0-5.272,0" transform="translate(-1013.044 -767.719)" fill="#1f3b26"/>
    <path id="Path_21800" data-name="Path 21800" d="M2295.94,789.111a2.638,2.638,0,0,0,5.272,0,2.637,2.637,0,0,0-5.272,0" transform="translate(-2241 -767.719)" fill="#1f3b26"/>
    <path id="Path_21801" data-name="Path 21801" d="M3785.139,325.559V341.03h4.248v-9.373a7.368,7.368,0,0,1,5.482-2.336V325.3a7.573,7.573,0,0,0-5.482,2.044v-1.784Z" transform="translate(-3694.564 -317.516)" fill="#1f3b26"/>
    <rect id="Rectangle_3053" data-name="Rectangle 3053" width="4.25" height="15.471" transform="translate(103.482 8.044)" fill="#1f3b26"/>
    <path id="Path_21802" data-name="Path 21802" d="M4306.764,0a2.508,2.508,0,0,0-2.594,2.531,2.6,2.6,0,0,0,5.189,0,2.548,2.548,0,0,0-2.6-2.531" transform="translate(-4201.175)" fill="#1f3b26"/>
    <path id="Path_21803" data-name="Path 21803" d="M4693.808,335.75v-8.4c0-4.541-2.724-7.459-6.843-7.459a6.955,6.955,0,0,0-4.477,1.557v-1.168h-4.248V335.75h4.248V325.728a4.931,4.931,0,0,1,3.569-1.978c2.237,0,3.5,1.329,3.5,3.86v8.141Z" transform="translate(-4566.293 -312.235)" fill="#1f3b26"/>
    <path id="Path_21804" data-name="Path 21804" d="M5402.264,123.141a9.813,9.813,0,0,0,3.73-.681l-.583-3.859a6.971,6.971,0,0,1-2.66.616,2.432,2.432,0,0,1-2.725-2.627v-5.741h5.676V107.28h-5.676v-5.61h-4.249v5.611h-3.308v3.568h3.308v5.741c0,3.957,2.334,6.552,6.486,6.552" transform="translate(-5263.432 -99.237)" fill="#1f3b26"/>
    <path id="Path_21805" data-name="Path 21805" d="M2972.71,68.71c0,2.465-1.849,4.119-4.606,4.119h-3.924V65.045h3.924c2.757,0,4.606,1.492,4.606,3.665m-12.94-7.72V83.045h4.41V76.883h3.438c5.676,0,9.438-3.244,9.438-8.173,0-4.638-3.5-7.72-8.79-7.72Z" transform="translate(-2888.945 -59.531)" fill="#1f3b26"/>
  </g>
</svg>
