<svg xmlns="http://www.w3.org/2000/svg" width="119.958" height="133.5" viewBox="0 0 119.958 133.5">
  <g id="Layer_1" data-name="Layer 1" transform="translate(0.012 0)">
    <g id="Group_4802" data-name="Group 4802" transform="translate(-0.012 0)">
      <g id="Group_4801" data-name="Group 4801" transform="translate(47.75 58.65)">
        <path id="Path_21811" data-name="Path 21811" d="M368.56,441.4v10.107L360,441.4H357.67v15.657H360.8v-9.831l8.473,9.831h2.418V441.4Z" transform="translate(-357.67 -441.124)" fill="#1f3b26"/>
        <path id="Path_21812" data-name="Path 21812" d="M530.981,442.024c1.98,0,2.9.9,3.108,2.348H537.2c-.369-4.006-3.8-5.042-6.447-5.042-3.568,0-5.939,1.934-5.939,4.928,0,2.418,1.359,3.984,4.467,4.582l2.533.483c1.681.3,2.072,1.013,2.072,1.7,0,1.105-.991,1.726-2.717,1.726-2.164,0-3.615-1.013-3.867-2.647H524.19c.23,3.362,2.924,5.433,6.792,5.433s6.124-1.934,6.124-4.9c0-2.579-1.75-3.753-4.811-4.375l-1.842-.368c-1.5-.3-2.326-.784-2.326-1.91,0-1.29,1.128-1.957,2.854-1.957" transform="translate(-501.96 -439.33)" fill="#1f3b26"/>
        <path id="Path_21813" data-name="Path 21813" d="M484.25,535a1.9,1.9,0,0,0,3.8,0,1.9,1.9,0,0,0-3.8,0" transform="translate(-467.352 -520.625)" fill="#1f3b26"/>
        <path id="Path_21814" data-name="Path 21814" d="M631.31,535a1.9,1.9,0,0,0,3.8,0,1.9,1.9,0,0,0-3.8,0" transform="translate(-594.779 -520.625)" fill="#1f3b26"/>
      </g>
      <path id="Path_21815" data-name="Path 21815" d="M62.661,133.5a6.3,6.3,0,0,1-3.875-1.482,10.093,10.093,0,0,1-3.16-4.221,7.142,7.142,0,0,0-1.6-2.452L54,125.323c-.279-.234-.586-.465-.91-.709a13.273,13.273,0,0,1-2.447-2.205c-.23-.28-.454-.575-.672-.861-.72-.945-1.4-1.84-2.152-2.008a13.461,13.461,0,0,0-4.085.27c-.248.04-.5.08-.74.117l-.1.013c-1.206.128-1.665.772-2.507,2.1-.87,1.368-2.237,3.519-5.225,3.519a7.534,7.534,0,0,1-1.742-.218l-.147-.04c-1.537-.477-1.694-.4-3.209.372-.33.167-.7.356-1.133.561l-.111.048c-2.7,1.105-5.683.5-8.863-1.8a40.026,40.026,0,0,1-3.789-3.223,34.265,34.265,0,0,0-3.551-3.008l-.019-.013c-1.037-.74-2.227-1.416-3.487-2.135-2.647-1.507-5.648-3.215-7.727-5.93l-.084-.119A9.627,9.627,0,0,1,.29,102.674c.976-4.093,4.522-4.859,7.112-5.42a9.224,9.224,0,0,0,3.253-1.091l.031-.021c3.351-2.346,5.706-2.675,9.692-2.516h.457a7.606,7.606,0,0,0,2.654-.267c.617-.24,1.408-2.037,1.689-2.682l.053-.135c.51-1.295,1.208-3.065.768-3.964a.616.616,0,0,0-.555-.016l-.079.031a8.571,8.571,0,0,0-1.485.832,9.344,9.344,0,0,1-3.61,1.609c-3.136.523-5-2.105-6-3.519l-.184-.259c-1.275-1.8-2.382-3.57-2-5.591.354-1.878,1.9-3.129,3.223-4.012,2.789-2.133,4.053-5.814,5.391-9.711,1.083-3.153,2.2-6.415,4.236-9.111.259-.368.527-.722.788-1.064a9.045,9.045,0,0,0,1.65-2.753c.507-1.93-.782-3.741-1.956-4.919a15.686,15.686,0,0,0-5.949-3.631,14.208,14.208,0,0,0-2.019-.433,10.277,10.277,0,0,1-5.184-1.94,7.526,7.526,0,0,1-2.741-8c.1-.455.188-.933.279-1.438a24.231,24.231,0,0,1,.6-2.707,9.283,9.283,0,0,1,1.387-2.678,6.641,6.641,0,0,0,.708-1.2l.017-.048a4.965,4.965,0,0,0-.354-1.045,8.852,8.852,0,0,1-.533-1.585l-.013-.072c-.406-2.35,1.262-3.711,2.156-4.443.216-.176.419-.343.578-.5l.061-.057a6.881,6.881,0,0,0,1.039-1.408,13.776,13.776,0,0,1,1.183-1.683c1.543-1.909,3.7-2.241,5.429-2.51a7.236,7.236,0,0,0,2.163-.537,4.327,4.327,0,0,0,1.184-1.619c.167-.3.339-.615.534-.93a7.254,7.254,0,0,1,8.991-3.2,10.273,10.273,0,0,1,2.8,1.874A8.756,8.756,0,0,0,39.08,9.327l.072.041c.362.215.806.134,2.051-.242.438-.132.934-.282,1.456-.394a9.768,9.768,0,0,1,9.135,3.191,13.659,13.659,0,0,1,2.048,2.9,14.35,14.35,0,0,0,.936,1.486,5.814,5.814,0,0,0,2.862-2.434l.02-.036c.525-.905.336-2.167.119-3.63a11.653,11.653,0,0,1,.005-4.938l.027-.088c.9-2.806,4.025-4.161,6.551-4.236a11.119,11.119,0,0,1,1.833.112,6.571,6.571,0,0,0,1.2.077l.059,0a4.765,4.765,0,0,0,1.258-.4,8.754,8.754,0,0,1,2.367-.7L71.2.012C74.759-.2,76.726,2.45,78.161,4.384a18.547,18.547,0,0,0,1.163,1.468,7.473,7.473,0,0,0,2.545,1.793c.047-.184.092-.417.125-.594a5.231,5.231,0,0,1,1.689-3.37l.168-.135.191-.1c2.314-1.215,4.216.57,5.237,1.53a6.75,6.75,0,0,0,.955.805l.135.043.147.071c.662.322,1.264-.117,2.854-1.7.34-.338.694-.689,1.056-1.009l.02-.017C95.637,2.139,98.12-.012,100.964,1.4l.081.04.077.047c2.506,1.511,3.038,4.889,2.095,7.153a9.094,9.094,0,0,1-3.212,3.653c-.318.244-.617.474-.878.7l-.06.049A6.308,6.308,0,0,0,97.6,15.4a20.774,20.774,0,0,1-.967,1.926c-.306.534-.639,1.019-.964,1.486a7.2,7.2,0,0,0-1.175,2.129l-.023.089a1.561,1.561,0,0,0,.015.792,9.112,9.112,0,0,0,1.26-.485,7.32,7.32,0,0,1,3.291-.849,4.508,4.508,0,0,1,3.881,2.77l.049.1a8.568,8.568,0,0,1-.515,7.184c-.187.445-.4.852-.6,1.247a5.4,5.4,0,0,0-.69,1.766,5.436,5.436,0,0,0,.857,1.236,11.152,11.152,0,0,1,1.473,2.151,16.188,16.188,0,0,1,1.048,2.838,13.9,13.9,0,0,0,.693,1.981l.019.04a8.192,8.192,0,0,0,1.837,2.558l.032.031c.34.335.73.647,1.143.98a7.833,7.833,0,0,1,2.956,3.661,9.356,9.356,0,0,1-.227,6.06c-.4,1.328-.517,1.877-.224,2.374a3.588,3.588,0,0,0,1.784,1.34c.14.048.283.1.426.143A8.279,8.279,0,0,1,117,61.3l.021.027a11.812,11.812,0,0,1,2.828,8.93,13.1,13.1,0,0,1-2.061,5.06c-.251.425-.489.825-.7,1.222l-.007.012c-.659,1.216-.6,2.754-.538,4.536l.008.27c0,1.184.089,2.367.183,3.619.1,1.4.212,2.849.192,4.329v.055c-.187,4.889-2.422,6.626-5.576,8.467a1.09,1.09,0,0,0-.2.212,6.862,6.862,0,0,0,.781,1.7c1,1.8,2.514,4.508.768,7.656-1.048,2.148-3.163,3.077-4.866,3.825a6.961,6.961,0,0,0-2,1.108.637.637,0,0,0,0,.083,10.3,10.3,0,0,0,.2,1.024c.34,1.5.909,4-1.148,5.867a8.766,8.766,0,0,1-4.2,1.865c-.364.084-.709.164-1.013.254a18.329,18.329,0,0,0-6.389,3.121l-.072.061a5.108,5.108,0,0,0-1.075,2.173c-.493,1.467-1.107,3.292-2.957,4.232l-.112.053c-2.225.977-4.017-.252-5.086-.987-.242-.166-.473-.324-.658-.427a6.292,6.292,0,0,0-.88,1.02l-.092.115c-3.528,4.14-7.381,2.4-9.931,1.255a7.582,7.582,0,0,0-3.479-1.011,6.108,6.108,0,0,0-2.224,1.02,7.684,7.684,0,0,1-4.054,1.454Zm-5.8-11.574a10.849,10.849,0,0,1,2.77,3.934,6.4,6.4,0,0,0,1.744,2.554l.105.077a2,2,0,0,0,1.31.582,5.315,5.315,0,0,0,1.578-.788,9.943,9.943,0,0,1,3.986-1.649l.033,0A10.894,10.894,0,0,1,74.257,128c2.721,1.226,3.443,1.366,4.655-.033a8.68,8.68,0,0,1,2.067-2.1,4.012,4.012,0,0,1,4.364-.174,11.345,11.345,0,0,1,1.165.729,8.718,8.718,0,0,0,.78.5,8.723,8.723,0,0,0,.629-1.553,8.565,8.565,0,0,1,2.427-4.155,22.176,22.176,0,0,1,7.97-4.014l.059-.019c.443-.132.881-.234,1.306-.332a5.326,5.326,0,0,0,2.189-.8l.019-.017a.326.326,0,0,0,.025-.025,5.137,5.137,0,0,0-.216-1.594,12.307,12.307,0,0,1-.291-1.606l0-.04a4.547,4.547,0,0,1,1.727-3.984,12.075,12.075,0,0,1,2.914-1.617c1.151-.5,2.34-1.027,2.667-1.725l.037-.08.044-.077c.5-.884.282-1.554-.746-3.4a9.115,9.115,0,0,1-1.3-3.292,4.6,4.6,0,0,1,1.956-4.324l.124-.1.136-.079c2.758-1.6,3.42-2.243,3.524-4.87.015-1.279-.08-2.561-.182-3.917-.095-1.263-.191-2.57-.195-3.9l-.005-.154c-.079-2.12-.167-4.522,1.067-6.8.256-.479.529-.94.792-1.384a9.45,9.45,0,0,0,1.482-3.376l.011-.079a7.592,7.592,0,0,0-1.866-5.478,4.8,4.8,0,0,0-2.02-.984c-.16-.053-.32-.107-.479-.162l-.019-.007a7.99,7.99,0,0,1-4.137-3.275c-1.3-2.2-.69-4.239-.2-5.873a5.163,5.163,0,0,0,.279-3.38l-.017-.053a4.558,4.558,0,0,0-1.515-1.581c-.454-.364-.968-.777-1.465-1.263a12.646,12.646,0,0,1-2.808-3.924,17.52,17.52,0,0,1-.926-2.6,12.631,12.631,0,0,0-.756-2.1l-.02-.04a7.472,7.472,0,0,0-.933-1.31,7.065,7.065,0,0,1-1.832-3.524l-.013-.1,0-.1a8.02,8.02,0,0,1,1.173-4.086c.18-.351.35-.682.475-.987l.057-.127a4.577,4.577,0,0,0,.514-3.43,2.159,2.159,0,0,0-.195-.306,8.332,8.332,0,0,0-1.189.459,7.392,7.392,0,0,1-3.8.868l-.081-.011a4.066,4.066,0,0,1-2.845-1.849,5.726,5.726,0,0,1-.65-4.52,10.762,10.762,0,0,1,1.829-3.576c.284-.411.554-.8.765-1.171l.017-.029a16.559,16.559,0,0,0,.762-1.533,10.084,10.084,0,0,1,2.687-3.942c.351-.3.708-.577,1.053-.842A5.489,5.489,0,0,0,99.11,6.957a1.74,1.74,0,0,0-.159-1.565,6.05,6.05,0,0,0-1.563,1.116c-.267.238-.558.527-.866.832a13.2,13.2,0,0,1-2.965,2.406,5.28,5.28,0,0,1-4.85.2A7.251,7.251,0,0,1,86.3,8.265a5.415,5.415,0,0,1-.979,2.34l-.049.06a4.011,4.011,0,0,1-3,1.455l-.147,0c-2.693,0-5.275-2.448-6.011-3.209l-.029-.031a21.616,21.616,0,0,1-1.5-1.865c-1.29-1.74-2.027-2.585-3-2.585h-.037a6.03,6.03,0,0,0-1.132.39,8.3,8.3,0,0,1-2.659.729,10.062,10.062,0,0,1-2.084-.1,7.733,7.733,0,0,0-1.127-.084h-.037A2.914,2.914,0,0,0,62.07,6.5a8.474,8.474,0,0,0,.121,3.058c.282,1.89.633,4.24-.657,6.477-1.016,1.814-3.669,4.456-6.419,4.686a4.3,4.3,0,0,1-3.809-1.65l-.021-.027a17.668,17.668,0,0,1-1.294-2.013,9.925,9.925,0,0,0-1.371-2.008l-.069-.072a5.4,5.4,0,0,0-4.914-1.894l-.027.005c-.344.073-.716.186-1.109.3-1.475.445-3.494,1.053-5.59-.175a12.524,12.524,0,0,1-2.075-1.527,6.561,6.561,0,0,0-1.6-1.143l-.083-.036a2.8,2.8,0,0,0-3.333,1.34l-.056.1c-.144.232-.29.5-.445.774a7.766,7.766,0,0,1-2.908,3.351A10.6,10.6,0,0,1,22.752,17.1c-1.358.21-2.213.367-2.654.92l-.059.071a9.8,9.8,0,0,0-.806,1.168,10.55,10.55,0,0,1-1.8,2.322c-.286.275-.575.511-.833.721-.163.134-.386.315-.531.454.059.163.138.356.216.546a5.566,5.566,0,0,1,.4,4.287,9.929,9.929,0,0,1-1.195,2.151,5.889,5.889,0,0,0-.8,1.414l-.015.049a20.26,20.26,0,0,0-.485,2.233c-.1.55-.2,1.117-.331,1.687l-.029.115A3.1,3.1,0,0,0,15,38.6l.08.063a6.59,6.59,0,0,0,3.105,1,17.906,17.906,0,0,1,2.657.587,20.089,20.089,0,0,1,7.738,4.729c2.814,2.829,3.913,6.088,3.093,9.175l-.005.017a12.583,12.583,0,0,1-2.394,4.264c-.254.334-.493.65-.713.963l-.048.067c-1.621,2.137-2.583,4.941-3.6,7.91-1.5,4.377-3.057,8.9-6.967,11.848l-.112.08c-1.112.734-1.332,1.105-1.368,1.179.008.184.192.714,1.255,2.212.059.083.125.175.192.27.406.573,1.248,1.764,1.626,1.7l.025,0a5.938,5.938,0,0,0,1.906-.959A12.138,12.138,0,0,1,23.8,82.448a4.892,4.892,0,0,1,6.157,2.1l.009.017c1.358,2.666.187,5.635-.587,7.6l-.1.243c-.678,1.557-1.812,4.163-4.152,5.076a11.142,11.142,0,0,1-4.315.578c-.158,0-.315,0-.473,0h-.1c-3.179-.131-4.515-.021-6.983,1.7a12.723,12.723,0,0,1-4.911,1.825c-2.673.578-3.436.905-3.722,2.1a5.437,5.437,0,0,0,.352,3.87c1.533,1.965,3.871,3.3,6.345,4.7a44.979,44.979,0,0,1,3.861,2.372,38.072,38.072,0,0,1,4.018,3.386,36.435,36.435,0,0,0,3.367,2.878c2.681,1.934,4.017,1.5,4.506,1.308.354-.168.666-.327.969-.481a7.216,7.216,0,0,1,6.479-.678c1.019.238,1.137.143,2.1-1.376.949-1.493,2.382-3.745,5.738-4.126.218-.033.439-.069.661-.105a16.68,16.68,0,0,1,5.638-.248l.045.009c2.4.494,3.739,2.259,4.818,3.675.2.266.394.518.579.745a9.567,9.567,0,0,0,1.675,1.463c.351.264.716.538,1.079.842ZM54.825,16.35ZM86.59,7.014Z" transform="translate(0.012 0)" fill="#1f3b26"/>
    </g>
  </g>
</svg>
