<svg id="instagram-logo_1_" data-name="instagram-logo (1)" xmlns="http://www.w3.org/2000/svg" width="19.745" height="19.746" viewBox="0 0 19.745 19.746">
  <path id="Path_8" data-name="Path 8" d="M14.3,0H5.449A5.455,5.455,0,0,0,0,5.449V14.3a5.455,5.455,0,0,0,5.449,5.449H14.3A5.455,5.455,0,0,0,19.745,14.3V5.449A5.455,5.455,0,0,0,14.3,0Zm3.7,14.3a3.7,3.7,0,0,1-3.7,3.7H5.449a3.7,3.7,0,0,1-3.7-3.7V5.449a3.7,3.7,0,0,1,3.7-3.7H14.3a3.7,3.7,0,0,1,3.7,3.7V14.3Z" transform="translate(0 0)" fill="#1f3b26"/>
  <path id="Path_9" data-name="Path 9" d="M46.056,40.97a5.088,5.088,0,1,0,5.088,5.088A5.094,5.094,0,0,0,46.056,40.97Zm0,8.424a3.336,3.336,0,1,1,3.336-3.336A3.34,3.34,0,0,1,46.056,49.394Z" transform="translate(-36.183 -36.185)" fill="#1f3b26"/>
  <path id="Path_10" data-name="Path 10" d="M120.206,28.251a1.284,1.284,0,1,0,.909.376A1.29,1.29,0,0,0,120.206,28.251Z" transform="translate(-105.032 -24.951)" fill="#1f3b26"/>
</svg>
