<svg xmlns="http://www.w3.org/2000/svg" width="18.592" height="17.765" viewBox="0 0 18.592 17.765">
  <path id="LinkedIn" d="M18.592,20.45v6.873H14.607V20.91c0-1.611-.576-2.71-2.019-2.71a2.18,2.18,0,0,0-2.045,1.458,2.727,2.727,0,0,0-.132.972v6.694H6.425s.054-10.862,0-11.987h3.986v1.7c-.008.013-.019.026-.026.039h.026v-.039A3.958,3.958,0,0,1,14,15.055C16.626,15.055,18.592,16.768,18.592,20.45ZM2.256,9.558A2.077,2.077,0,1,0,2.2,13.7h.027a2.078,2.078,0,1,0,.026-4.143ZM.237,27.323H4.221V15.336H.237Z" transform="translate(0 -9.558)" fill="#1f3b26"/>
</svg>
