<svg id="Layer_1" data-name="Layer 1" xmlns="http://www.w3.org/2000/svg" width="81.502" height="73.061" viewBox="0 0 81.502 73.061">
  <path id="Path_21810" data-name="Path 21810" d="M77.957,32.751H75.34V29h2.617ZM71.792,35.5H68.111V33.666l0-7.411h3.679V35.5ZM49.871,66.815l.006-11.983,11.981.006ZM16.946,16.335H64.569l0,6.374h0V32.786l0,18.507-18.228-.008-.009,18.228-29.394,0,.015-53.175ZM9.707,12.791V3.546H71.792v9.244Zm-6.159-6.5H6.163v3.747H3.549ZM77.955,10.04H75.337V6.293h2.618ZM9.709,35.5V26.254H13.4l0,9.244H9.709ZM3.546,29H6.162v3.748H3.546V29ZM81.5,25.458H75.337V22.709H68.113l0-6.374h7.222V13.585H81.5V2.746H75.337V0H6.162V2.746H0V13.585h6.16v2.751H13.4l0,6.374H6.163v2.749H0V36.3H6.162v2.748h7.231l-.009,34.01,35.261.005L48.7,73l.154.033.62-.812L67.209,54.5l.673-.416v-.267l.224-.227,0-14.548h7.227V36.3H81.5V25.458Z" fill="#1f3b26"/>
</svg>
