<svg xmlns="http://www.w3.org/2000/svg" width="79.859" height="74.049" viewBox="0 0 79.859 74.049">
  <g id="Layer_1" data-name="Layer 1" transform="translate(-4 -61.311)">
    <g id="Group_4778" data-name="Group 4778" transform="translate(4 61.311)">
      <path id="Path_21807" data-name="Path 21807" d="M70.4,70.4H33.527L67.573,50.612H70.4ZM23.438,3.648v43.31H3.649V3.648Zm15,1.759,17.4,9.425-28.6,52.835V46.959h-.149V26.373L38.437,5.407ZM49.679,33.876l15.3-8.836,9.9,17.142-8.282,4.781L31.682,67.116l1.81-3.344ZM23.438,70.4H3.8V50.607H23.438V70.4Zm56.421-26.88L66.316,20.054,53,27.747,60.784,13.36,36.966.461l-9.88,18.248V0H0V74.049H74.05V46.963H73.89Z" fill="#1f3b26"/>
      <path id="Path_21808" data-name="Path 21808" d="M111.722,741.678a2.2,2.2,0,1,1-2.2,2.2,2.207,2.207,0,0,1,2.2-2.2m0,8.056a5.852,5.852,0,1,0-5.852-5.852,5.859,5.859,0,0,0,5.852,5.852" transform="translate(-98.03 -683.38)" fill="#1f3b26"/>
    </g>
  </g>
</svg>
